<svg xmlns="http://www.w3.org/2000/svg" width="860" height="260" viewBox="0 0 860 260" role="img" aria-labelledby="title description">
  <title id="title">Public GitHub activity</title>
  <desc id="description">Public contributions, pull requests, issues, active repositories, and language distribution for the trailing 365 days.</desc>
  <rect x="0.5" y="0.5" width="859" height="259" rx="12" fill="#0d1117" stroke="#30363d" />
  <text x="32" y="42" fill="#f0f6fc" font-family="-apple-system, BlinkMacSystemFont, Segoe UI, sans-serif" font-size="18" font-weight="600">Public GitHub activity</text>
  <text x="32" y="62" fill="#8b949e" font-family="-apple-system, BlinkMacSystemFont, Segoe UI, sans-serif" font-size="12.5">Trailing 365 days · refreshed 2026-07-15 UTC</text>
  <g font-family="-apple-system, BlinkMacSystemFont, Segoe UI, sans-serif">
        <text x="32" y="97" fill="#f0f6fc" font-size="26" font-weight="600">138</text>
        <text x="32" y="119" fill="#8b949e" font-size="11" font-weight="600" letter-spacing="0.6">PUBLIC CONTRIBUTIONS</text>
        <text x="235" y="97" fill="#f0f6fc" font-size="26" font-weight="600">34</text>
        <text x="235" y="119" fill="#8b949e" font-size="11" font-weight="600" letter-spacing="0.6">PULL REQUESTS</text>
        <text x="438" y="97" fill="#f0f6fc" font-size="26" font-weight="600">22</text>
        <text x="438" y="119" fill="#8b949e" font-size="11" font-weight="600" letter-spacing="0.6">ISSUES</text>
        <text x="641" y="97" fill="#f0f6fc" font-size="26" font-weight="600">15</text>
        <text x="641" y="119" fill="#8b949e" font-size="11" font-weight="600" letter-spacing="0.6">ACTIVE REPOSITORIES</text>
    <text x="32" y="158" fill="#f0f6fc" font-size="13" font-weight="600">Languages across active public repositories</text>
    <defs>
      <clipPath id="language-bar-dark">
        <rect x="32" y="176" width="796" height="14" rx="7" />
      </clipPath>
    </defs>
    <rect x="32" y="176" width="796" height="14" rx="7" fill="#21262d" />
    <g clip-path="url(#language-bar-dark)"><rect x="32" y="176" width="446" height="14" fill="#3178c6" /><rect x="478" y="176" width="282" height="14" fill="#f1e05a" /><rect x="760" y="176" width="32" height="14" fill="#663399" /><rect x="792" y="176" width="18" height="14" fill="#e34c26" /><rect x="810" y="176" width="18" height="14" fill="#8b949e" /></g>
    
        <circle cx="37" cy="220" r="5" fill="#3178c6" />
        <text x="48" y="224" fill="#8b949e" font-size="12.5">TypeScript 56.0%</text>
        <circle cx="196.2" cy="220" r="5" fill="#f1e05a" />
        <text x="207.2" y="224" fill="#8b949e" font-size="12.5">JavaScript 35.4%</text>
        <circle cx="355.4" cy="220" r="5" fill="#663399" />
        <text x="366.4" y="224" fill="#8b949e" font-size="12.5">CSS 4.1%</text>
        <circle cx="514.6" cy="220" r="5" fill="#e34c26" />
        <text x="525.6" y="224" fill="#8b949e" font-size="12.5">HTML 2.3%</text>
        <circle cx="673.8" cy="220" r="5" fill="#8b949e" />
        <text x="684.8" y="224" fill="#8b949e" font-size="12.5">Other 2.2%</text>
  </g>
</svg>
